<svg xmlns="http://www.w3.org/2000/svg" width="384" height="269" viewBox="0 0 384 269" fill="none"><path fill="#000" d="M173.873 268.798c-48.827 0-88.41-4.647-88.41-10.379 0-5.733 39.583-10.38 88.41-10.38s88.409 4.647 88.409 10.38c0 5.732-39.582 10.379-88.409 10.379" opacity=".3"/><path fill="#F99F10" d="M274.699 188.894c7.775.298 23.173 7.317 22.253 18.309-.921 10.993-13.608 12.423-30.228 5.892"/><path stroke="#3A1103" stroke-miterlimit="10" stroke-width="3.342" d="M274.699 188.894c7.775.298 23.173 7.317 22.253 18.309-.921 10.993-13.608 12.423-30.228 5.892"/><path fill="#EF6122" d="M157.53 69.601c-21.233-14.804-48.401-18.125-53.18-12.812-3.877 4.304 10.767 27.883 8.394 34.774-2.366 6.89-23.138 2.433-25.41 11.195-1.076 4.164 14.857 14.209 14.429 20.024-.427 5.814-12.732 4.17-13.634 11.696-.608 5.059 10.62 6.175 10.192 12.204-.427 6.028-8.534 4.926-8.18 10.767.287 4.739 9.15 1.617 11.522 9.584 2.366 7.967 55.874-97.432 55.874-97.432z"/><path fill="#FAC20C" stroke="#3A1103" stroke-miterlimit="10" stroke-width="3.342" d="M62.807 210.988c.648-19.489 14.249-23.813 24.127-20.484 9.871 3.328 9.323 14.804 6.83 19.121-3.983 6.891-9.83 3.917-7.645-.909 1.617-4.632 1.918-11.061-5.735-9.016-9.51 2.546-6.55 28.118 13.474 23.092 13.715-3.442 12.639-17.966 11.549-39.146-2.921-20.491.241-47.359 8.956-72.863 17.658-51.677 124.026-68.472 159.335-20.672 45.868 62.089-4.712 122.735-12.492 130.482-24.234 18.807-20.304 35.823-37.668 36.953-16.502 1.076-15.145-15.693-26.059-16.629-.642 0-1.283 0-1.925-.013-12.812.942-15.285 16.922-34.607 16.642-15.746-.228-8.735-13.982-19.255-20.579-2.206-1.042-4.117-1.778-5.882-2.259a32 32 0 0 0-4.678-.615c-.401-.026-2.827-.013-3.536-.013-6.249.114-9.998 1.591-24.12 4.465-25.444 5.173-41.217-11.068-40.67-27.557Z"/><path fill="#EF6122" d="M132.262 82.794c36.171-25.624 78.271-11.63 83.651-8.074s13.006-.668 8.722-11.341c-14.356-35.744-51.396-53.923-61.368-47.767-11.148 6.884 2.874 37.588-4.411 44.786-5.848 5.774-9.832 1.363-19.777-1.972-8.982-3.014-6.817 24.368-6.817 24.368"/><path stroke="#000" stroke-linecap="round" stroke-miterlimit="10" stroke-width="3.342" d="M241.504 169.936c-8.803 3.929-18.033 1.436-23.653-7.366"/><path fill="#5545EF" stroke="#231735" stroke-miterlimit="10" stroke-width="3.342" d="m184.762 114.013 98.736-8.519c11.864-1.024 22.311 7.764 23.335 19.628v.006c1.024 11.864-7.764 22.311-19.628 23.335l-98.736 8.519c-11.863 1.024-22.31-7.764-23.334-19.627l-.001-.007c-1.023-11.864 7.764-22.311 19.628-23.335Z"/><path fill="#19052D" d="m208.145 119.296 74.924-6.465c7.87-.679 14.8 5.15 15.479 13.02.68 7.87-5.15 14.8-13.02 15.48l-74.924 6.464c-7.87.679-14.8-5.15-15.479-13.02s5.15-14.8 13.02-15.479"/><path fill="#F99F10" d="M181.857 201.344c-2.526 12.343-9.245 21.137-18.316 18.784-10.022-2.6-10.741-13.574-8.432-24.98"/><path stroke="#3A1103" stroke-linecap="round" stroke-miterlimit="10" stroke-width="3.342" d="M181.857 201.344c-2.526 12.343-9.245 21.137-18.316 18.784-10.022-2.6-10.741-13.574-8.432-24.98"/><path stroke="#3A1103" stroke-miterlimit="10" stroke-width="3.342" d="M145.074 62.435c-18.232-8.582-36.017-13.133-40.729-5.648-5.093 8.094 12.271 25.284 8.394 34.775-3.622 8.875-24.08 1.256-25.41 11.195-1.063 7.953 14.857 14.209 14.429 20.023-.427 5.815-12.885 3.442-13.794 10.975-.609 5.059 10.78 6.897 10.346 12.925-.435 6.029-8.408 4.919-8.18 10.768.2 5.199 13.894 5.019 14.288 14.917"/><path stroke="#3A1103" stroke-miterlimit="10" stroke-width="3.342" d="M215.913 74.724c5.38 3.556 13.006-.668 8.722-11.342-14.356-35.743-50.3-53.989-61.368-47.766-11.616 6.53 2.874 37.588-4.411 44.786-4.07 4.023-9.417 3.85-14.316 1.79"/><path stroke="#3A1103" stroke-miterlimit="10" stroke-width="3.342" d="M216.126 74.884c-19.348-11.469-53.561-12.077-83.911 10.62"/><path fill="#6D96FF" d="M266.2 138.038c6.298.377 11.71-4.424 12.086-10.723s-4.425-11.71-10.724-12.087c-6.298-.376-11.71 4.425-12.086 10.724s4.425 11.71 10.724 12.086M239.189 140.585c6.299.377 11.71-4.425 12.086-10.723s-4.425-11.711-10.723-12.087-11.711 4.425-12.087 10.724 4.425 11.71 10.724 12.086"/><path fill="#19052D" d="m227.309 128.929 52.907-4.304-.851-10.471-52.908 4.304z"/><path fill="#05050F" fill-rule="evenodd" d="M308.03 81.878c1.62.772 3.254 1.62 4.809 2.522 6.624 4.906 8.167 13.682 4.822 19.535-7.285 12.885-21.648 2.89-29.27-2.846-7.356-5.548-15.186-9.877-24.098-10.163a331 331 0 0 0 1.595-7.486c5.075-1.276 10.104-2.592 15.14-3.863l17.584-.155c3.137.79 6.274 1.627 9.411 2.463z" clip-rule="evenodd"/><path fill="#D3D3EA" fill-rule="evenodd" d="M265.324 71.254c-16.528-113.476-209.913-73.2-157.265 45.947 2.768-.428 6.229-5.354 9.042-5.788 10.325-1.607 21.194-4.803 31.519-6.449 15.075-5.412 28.2-4.913 43.276-10.325 20.092-5.548 40.139-11.135 60.238-16.683 4.395-2.262 8.795-4.478 13.196-6.695z" clip-rule="evenodd"/><path fill="#595984" fill-rule="evenodd" d="M148.748 104.987c-.532-3.85-1.082-2.942-2.178-7.408-15.827-65.384 10.26-89.061 11.304-90-42.862 11.64-75.638 51.163-49.823 109.613" clip-rule="evenodd"/><path fill="#595984" fill-rule="evenodd" d="m163.501 3.088-8.063 2.042c-1.225.304-1.938 1.652-1.647 3 .337 1.342 1.588 2.172 2.813 1.822l8.102-2.048c1.186-.305 1.938-1.653 1.601-2.995-.337-1.341-1.588-2.171-2.813-1.821z" clip-rule="evenodd"/><path fill="#05050F" fill-rule="evenodd" d="M153.947 96.002c37.923-14.655 72.948-24.545 115.311-23.275 15.173 1.374 33.444 9.489 47.23 17.448-21.311-2.424-36.841-3.61-49.149 5.865-38.208 29.4-78.451 49.577-121.915 9.658z" clip-rule="evenodd"/><path fill="#595984" fill-rule="evenodd" d="M146.577 97.58c37.917-14.693 76.345-27.552 118.746-26.327 15.134 1.42 29.899 4.589 43.977 11.22-21.266-2.386-36.834 2.734-49.758 11.413-40.314 28.375-68.735 43.859-113.911 7.155l.94-3.454z" clip-rule="evenodd"/><path fill="#EF6122" d="M227.318 32.98c-.311-1.023-.758-2.08-1.387-3.298-.629-1.219-1.465-2.463-2.528-3.785-1.05-1.258-2.385-2.586-3.953-3.727-.59-.48-1.245-.94-1.951-1.322.052-3.572-2.515-6.047-2.515-6.047-3.286.563-5.023 2.203-5.665 2.968-.142-.032-.291-.071-.421-.039-.564-.071-1.212-.194-1.821-.188-.629-.058-1.245-.052-1.873-.11-.616.007-1.29.032-1.971.052a.6.6 0 0 1-.337.013c-2.476-4.142-6.935-5.075-6.935-5.075-3.804 3.902-3.772 8.134-3.772 8.134s.013.065 0 .272c-.246.123-.486.253-.732.376a6.7 6.7 0 0 1-.96.57c-.291.208-.654.428-.946.636-.57.473-1.212.965-1.782 1.445-.558.544-1.115 1.082-1.608 1.607-.077-.051-.142-.032-.142-.032-6.773-.875-11.602 3.338-11.602 3.338 1.031 6.734 5.004 10.254 5.833 10.876-.039.421-.065.9-.097 1.322-.104 1.6-.065 3.228.058 4.913.059.26.039.467.104.726-5.198 4.09-5.516 10.325-5.516 10.325 6.093 4.388 11.822 3.454 11.822 3.454 1.018 1.128 2.133 2.1 3.319 3.053.493.363.992.726 1.549 1.076-.577 5.405 2.418 9.145 2.418 9.145 5.424-1.07 8.335-4.42 8.911-5.172.564.071 1.18.065 1.731.071 1.731.072 3.461-.13 5.179-.395.389-.09.842-.201 1.231-.292l.195-.045.129-.032.259-.059.26-.058c3.383 3.04 7.894 2.456 7.894 2.456 2.405-4.05 1.756-7.389 1.588-8.102l-.013-.064-.032-.13-.033-.13a21 21 0 0 0 1.53-1.931c.959-1.458 1.821-3.027 2.411-4.602.032-.142.136-.304.168-.447 3.611-.642 5.581-3.636 5.581-3.636-1.452-3.558-4.019-4.874-4.563-5.153l-.078-.052-.065.013s-.064.013-.077-.052c-.046-.194-.039-.466-.085-.66-.09-.39-.116-.791-.227-1.245l-.077-.324-.033-.13-.013-.065-.032-.13-.058-.259-.078-.324-.078-.324-.078-.324-.077-.324-.143-.31c-.156-.377-.331-.811-.551-1.174-.771-1.53-1.705-2.884-2.865-4.05a16.8 16.8 0 0 0-3.902-2.918c-1.413-.764-2.89-1.237-4.4-1.568-1.498-.266-3.034-.382-4.492-.181-.726.103-1.458.207-2.171.369l-.26.058-.064.013s-.13.033-.065.013l-.13.033-.259.058-.259.058c-.376.156-.7.234-1.07.39-1.367.596-2.54 1.419-3.603 2.417-.999.985-1.841 2.074-2.437 3.312a11.4 11.4 0 0 0-1.187 3.7q-.273 1.914.046 3.682l.201.843.045.194.058.26.091.388c.201.57.467 1.122.72 1.608.583 1.024 1.263 1.892 2.093 2.52.784.707 1.711 1.174 2.625 1.576a9.9 9.9 0 0 0 2.735.59c.901.064 1.698-.059 2.476-.24l.259-.059.13-.032.13-.032.259-.059.065-.013.065-.013.129-.032c.13-.032.195-.045.246-.123.065-.013.182-.11.247-.123.181-.11.311-.143.486-.253.292-.207.59-.408.881-.616.292-.207.506-.46.72-.72.052-.077.097-.161.162-.174a.564.564 0 0 0-.136-.856c-.253-.214-.597-.2-.81.052-.052.078-.117.097-.163.175-.162.175-.408.298-.654.428-.246.123-.486.253-.733.376-.129.032-.246.123-.375.155l-.195.046-.194.045-.195.046-.259.058-.065.013-.13.032-.194.046c-.596.07-1.29.032-1.938-.091a7.1 7.1 0 0 1-1.944-.707 6.4 6.4 0 0 1-1.679-1.315c-.473-.57-.888-1.16-1.199-1.906-.156-.376-.233-.7-.324-1.089l-.078-.324-.013-.065-.013-.064-.032-.13c-.046-.195-.026-.402-.072-.596-.103-1.62.37-3.37 1.329-4.83.246-.4.512-.738.791-1.004.266-.337.609-.622.953-.907s.7-.506 1.127-.745c.357-.22.798-.396 1.251-.5l.648-.149.13-.032.195-.045.129-.033.065-.013.194-.045c.467-.039 1.005-.097 1.472-.143.952-.02 1.938.091 2.903.415 1.899.512 3.675 1.672 4.998 3.208.667.804 1.205 1.634 1.562 2.574.123.246.188.505.233.7l.045.194.046.194.045.195.045.194.033.13.045.194.104.454c.058.26.058.532.117.79.058.26.058.532.051.811-.006.279-.006.55-.013.823-.006.551-.077 1.115-.155 1.679a14.2 14.2 0 0 1-.888 3.221c-.888 2.055-2.236 3.876-4.038 5.256a13 13 0 0 1-2.884 1.705c-.506.188-1.07.389-1.575.577l-.13.032-.065.013-.194.046-.259.058-.13.032-.065.013c-.259.059-.583.136-.855.136-1.18.208-2.411.22-3.591.156a17.5 17.5 0 0 1-3.481-.55c-2.268-.63-4.498-1.68-6.351-3.164a20 20 0 0 1-2.548-2.41 19 19 0 0 1-1.976-2.892c-.584-1.024-.973-2.1-1.361-3.169l-.046-.195-.013-.064-.013-.065-.013-.065-.045-.194-.013-.065-.013-.065-.032-.13-.059-.259-.013-.065-.032-.13-.091-.388c-.136-.584-.194-1.115-.266-1.718-.071-.596-.077-1.212-.136-1.75-.006-.615 0-1.16 0-1.776.065-1.18.195-2.372.422-3.448.434-2.223 1.244-4.33 2.398-6.105.298-.48.609-.895.927-1.31.317-.414.641-.764 1.017-1.198.331-.35.72-.72 1.115-1.083.162-.175.408-.298.57-.473.117-.097.227-.188.292-.207.117-.098.227-.188.292-.208.408-.298.881-.616 1.302-.855.117-.098.247-.124.357-.22.117-.098.246-.124.356-.221.247-.123.486-.253.668-.363.117-.097.246-.123.376-.156.13-.032.246-.123.376-.155.129-.033.246-.123.376-.156l.181-.11.195-.045c.129-.033.246-.123.376-.156.129-.032.246-.123.44-.168.13-.033.311-.143.441-.169l.259-.058.195-.046.065-.013.129-.032.454-.104.194-.045.065-.013.065-.013.389-.09 1.426-.338c.985-.162 1.912-.31 2.864-.33a19.4 19.4 0 0 1 5.516.486c1.737.415 3.377.985 4.79 1.75.078.052.162.097.24.149s.162.097.24.149c.162.097.317.2.544.285.162.097.318.201.48.298.162.098.317.201.479.298.642.396 1.232.875 1.822 1.348 1.101.908 2.074 1.841 2.851 2.82.078.052.098.117.175.162.078.045.098.117.11.181l.286.344.285.343.285.344c.318.473.616.881.856 1.303a16 16 0 0 1 1.037 1.808c.11.181.35.33.596.201a.455.455 0 0 0 .35-.557c.162-1.063 0-1.776-.253-2.541z"/><rect width="12.602" height="12.602" x="2.832" y="232.956" stroke="#F3F2F9" stroke-width="4.583" rx="6.301" transform="rotate(-74.089 2.832 232.956)"/><rect width="12.602" height="12.602" x="368.291" y="96.299" stroke="#1866D4" stroke-width="4.583" opacity=".6" rx="6.301"/><rect width="6.874" height="29.788" x="339.457" y="212.008" fill="#fff" rx="3.437"/><rect width="6.874" height="29.788" x="357.788" y="223.461" fill="#fff" rx="3.437" transform="rotate(90 357.788 223.461)"/><rect width="3.966" height="17.185" x="79.673" y="7.477" fill="#E8E6F4" rx="1.983" transform="rotate(-45 79.673 7.477)"/><rect width="3.966" height="17.185" x="91.825" y="4.672" fill="#E8E6F4" rx="1.983" transform="rotate(45 91.825 4.672)"/><rect width="3.966" height="17.185" x="332.673" y="243.484" fill="#E8E6F4" rx="1.983" transform="rotate(-45 332.673 243.484)"/><rect width="3.966" height="17.185" x="344.825" y="240.68" fill="#E8E6F4" rx="1.983" transform="rotate(45 344.825 240.68)"/><rect width="3.966" height="17.185" x="38.142" y="150.609" fill="#6697E2" rx="1.983" transform="rotate(-119.089 38.142 150.609)"/><rect width="3.966" height="17.185" x="38.775" y="138.156" fill="#6697E2" rx="1.983" transform="rotate(-29.089 38.775 138.156)"/><g fill="#FAC20C" opacity=".6"><rect width="3.966" height="17.185" x="300" y="22.578" rx="1.983" transform="rotate(-90 300 22.578)"/><rect width="3.966" height="17.185" x="306.61" y="12" rx="1.983"/></g><g fill="#FAC20C" opacity=".6"><rect width="3.966" height="17.185" x="13.17" y="71.43" rx="1.983" transform="rotate(-164.089 13.17 71.43)"/><rect width="3.966" height="17.185" x="4.812" y="62.172" rx="1.983" transform="rotate(-74.089 4.812 62.172)"/></g><g fill="#FAC20C" opacity=".6"><rect width="3.966" height="17.185" x="342.17" y="184.43" rx="1.983" transform="rotate(-164.089 342.17 184.43)"/><rect width="3.966" height="17.185" x="333.812" y="175.172" rx="1.983" transform="rotate(-74.089 333.812 175.172)"/></g></svg>